<svg width="131" height="40" viewBox="0 0 131 40" fill="none" xmlns="http://www.w3.org/2000/svg">
<path d="M60.5828 20.9113C61.0884 21.5808 61.3412 22.4176 61.3412 23.3381C61.3412 24.677 60.8356 25.6812 59.8245 26.4343C58.8134 27.1874 57.5496 27.6059 55.7802 27.6059H49.9664C49.4609 27.6059 49.0396 27.4385 48.7025 27.1875C48.4498 26.9364 48.2812 26.518 48.2812 25.9322V13.5473C48.2812 13.0452 48.4498 12.6268 48.7025 12.2921C48.9553 12.041 49.3766 11.8736 49.9664 11.8736H55.5274C57.2125 11.8736 58.4764 12.2084 59.4032 12.9615C60.4143 13.7146 60.8356 14.7188 60.8356 15.8904C60.8356 16.7272 60.5828 17.4803 60.1616 17.9824C59.7403 18.5682 59.0662 19.0703 58.3921 19.3213C59.319 19.8234 60.0773 20.2418 60.5828 20.9113ZM51.6515 18.3172H54.9376C55.8644 18.3172 56.5385 18.1498 56.8755 17.8151C57.2968 17.4803 57.5496 17.0619 57.5496 16.3925C57.5496 15.723 57.2968 15.2209 56.8755 14.9699C56.4542 14.6351 55.7802 14.4678 54.9376 14.4678H51.6515V18.3172ZM57.3811 24.5096C57.8023 24.1749 58.0551 23.6728 58.0551 23.0034C58.0551 22.3339 57.8023 21.7481 57.3811 21.4134C56.9598 21.0787 56.2857 20.9113 55.4431 20.9113H51.7358V24.928H55.4431C56.2857 25.0117 56.9598 24.8444 57.3811 24.5096Z" fill="#08C47E"/>
<path d="M73.4742 16.8946C73.8112 17.1456 73.9798 17.564 73.9798 18.0661V26.1833C73.9798 26.6854 73.8112 27.0201 73.4742 27.3548C73.1372 27.6059 72.7159 27.7732 72.2103 27.7732C71.7048 27.7732 71.3678 27.6059 71.0307 27.3548C70.778 27.1038 70.6095 26.6854 70.6095 26.2669V26.0996C70.2724 26.6854 69.7669 27.1038 69.2613 27.4385C68.6715 27.7732 68.0817 27.8569 67.4077 27.8569C65.9753 27.8569 65.0485 27.4385 64.2901 26.6854C63.6161 25.9322 63.2791 24.8444 63.2791 23.2544V18.0661C63.2791 17.564 63.4476 17.1456 63.7846 16.8946C64.1216 16.6435 64.5429 16.4762 65.0485 16.4762C65.554 16.4762 65.9753 16.6435 66.3123 16.8946C66.6494 17.1456 66.7336 17.564 66.7336 18.0661V23.2544C66.7336 23.9238 66.9021 24.4259 67.1549 24.7607C67.4077 25.0954 67.829 25.2628 68.4188 25.2628C69.0928 25.2628 69.5984 25.0117 70.0196 24.5933C70.4409 24.1749 70.6095 23.5054 70.6095 22.836V18.1498C70.6095 17.6477 70.778 17.2293 71.0307 16.9782C71.3678 16.7272 71.7891 16.5598 72.2946 16.5598C72.8001 16.4762 73.2214 16.6435 73.4742 16.8946Z" fill="#08C47E"/>
<path d="M78.3612 27.5222C77.6871 27.3548 77.0973 27.1038 76.5918 26.769C76.339 26.6017 76.1705 26.4343 76.0862 26.1833C76.002 25.9322 75.9177 25.6812 75.9177 25.4301C75.9177 25.0954 76.002 24.7607 76.2548 24.5933C76.4233 24.3422 76.676 24.2586 77.0131 24.2586C77.1816 24.2586 77.4344 24.2586 77.6029 24.3422C77.7714 24.4259 78.0242 24.5096 78.1927 24.5933C78.614 24.7607 79.0353 24.928 79.4565 25.0954C79.8778 25.1791 80.3834 25.2628 80.9732 25.2628C81.4787 25.2628 81.9 25.1791 82.237 25.0117C82.5741 24.8443 82.6583 24.5933 82.6583 24.3422C82.6583 24.0912 82.5741 23.9238 82.4898 23.8402C82.3213 23.6728 82.1528 23.5891 81.7315 23.5054C81.3102 23.4217 80.8047 23.2544 80.0463 23.087C78.6982 22.836 77.7714 22.4176 77.1816 21.9155C76.5918 21.4134 76.2548 20.6602 76.2548 19.8234C76.2548 19.154 76.4233 18.5682 76.8446 18.0661C77.2658 17.4803 77.8556 17.0619 78.5297 16.8109C79.288 16.4761 80.0463 16.3088 80.8889 16.3088C81.563 16.3088 82.1528 16.3925 82.7426 16.5598C83.3324 16.7272 83.9222 16.9782 84.4277 17.2293C84.9333 17.4803 85.1018 17.8987 85.1018 18.4845C85.1018 18.8192 85.0175 19.154 84.7648 19.405C84.5962 19.6561 84.3435 19.7397 84.0064 19.7397C83.6694 19.7397 83.2481 19.5724 82.7426 19.3213C82.3213 19.154 81.9843 18.9866 81.7315 18.9029C81.3945 18.8192 81.0574 18.7356 80.6361 18.7356C80.1306 18.7356 79.7936 18.8192 79.5408 18.9866C79.288 19.154 79.1195 19.405 79.1195 19.7397C79.1195 20.0745 79.288 20.3255 79.6251 20.4929C79.9621 20.6602 80.5519 20.8276 81.3945 20.995C82.4055 21.1623 83.1639 21.4134 83.6694 21.7481C84.2592 21.9992 84.6805 22.4176 84.9333 22.836C85.186 23.2544 85.3546 23.7565 85.3546 24.4259C85.3546 25.5138 84.9333 26.2669 84.0064 26.9364C83.0796 27.6058 81.9843 27.8569 80.5519 27.8569C79.7936 27.7732 78.951 27.6895 78.3612 27.5222Z" fill="#08C47E"/>
<path d="M102.88 12.3757C103.217 12.7105 103.386 13.1289 103.386 13.631V26.1833C103.386 26.6853 103.217 27.1038 102.964 27.3548C102.712 27.6058 102.29 27.7732 101.785 27.7732C101.364 27.7732 100.942 27.6058 100.69 27.3548C100.437 27.1038 100.268 26.6853 100.268 26.1833V18.3171L97.1507 24.1749C96.8979 24.5933 96.7294 24.8443 96.4766 25.0117C96.2239 25.1791 95.8868 25.2628 95.5498 25.2628C95.2128 25.2628 94.96 25.1791 94.623 25.0117C94.3702 24.8443 94.1174 24.5096 93.9489 24.1749L90.8314 18.4008V26.0996C90.8314 26.6017 90.6629 26.9364 90.4101 27.2711C90.1573 27.6058 89.736 27.6895 89.2305 27.6895C88.8092 27.6895 88.3879 27.5222 88.1352 27.2711C87.8824 27.0201 87.7139 26.6017 87.7139 26.0996V13.5473C87.7139 13.0452 87.8824 12.6268 88.2194 12.292C88.5564 11.9573 88.9777 11.7899 89.4833 11.7899C90.2416 11.7899 90.7471 12.2084 91.1684 12.9615L95.7183 21.4971L100.268 12.9615C100.69 12.2084 101.195 11.7899 101.953 11.7899C102.122 11.8736 102.543 12.041 102.88 12.3757Z" fill="#08C47E"/>
<path d="M114.76 17.6477C115.519 18.4008 115.94 19.5724 115.94 21.246V26.2669C115.94 26.769 115.771 27.1874 115.519 27.4385C115.266 27.6895 114.845 27.8569 114.339 27.8569C113.834 27.8569 113.497 27.6895 113.16 27.4385C112.822 27.1874 112.738 26.769 112.738 26.2669V26.0996C112.485 26.6853 112.148 27.1037 111.559 27.4385C111.053 27.7732 110.379 27.9406 109.789 27.9406C109.031 27.9406 108.357 27.7732 107.767 27.5222C107.177 27.1874 106.672 26.769 106.335 26.2669C105.998 25.6812 105.829 25.0954 105.829 24.5096C105.829 23.6728 105.998 23.087 106.419 22.6686C106.84 22.2502 107.514 21.8318 108.357 21.6644C109.284 21.4971 110.463 21.3297 112.064 21.3297H112.654V20.9113C112.654 20.2418 112.485 19.8234 112.233 19.4887C111.98 19.2376 111.474 19.0703 110.8 19.0703C110.126 19.0703 109.199 19.3213 108.02 19.7397C107.683 19.9071 107.346 19.9908 107.093 19.9908C106.756 19.9908 106.503 19.9071 106.335 19.656C106.166 19.405 105.998 19.154 105.998 18.7355C105.998 18.4008 106.082 18.1498 106.166 17.9824C106.335 17.815 106.503 17.564 106.84 17.3966C107.346 17.1456 108.02 16.8945 108.694 16.7272C109.452 16.5598 110.21 16.4761 110.885 16.4761C112.738 16.3924 113.918 16.8109 114.76 17.6477ZM112.064 24.8443C112.485 24.4259 112.654 23.8401 112.654 23.087V22.6686H112.233C110.969 22.6686 110.21 22.7523 109.705 23.0033C109.199 23.1707 108.947 23.5891 108.947 24.0912C108.947 24.5096 109.115 24.8443 109.368 25.0954C109.621 25.3464 110.042 25.5138 110.463 25.5138C111.137 25.5138 111.643 25.2627 112.064 24.8443Z" fill="#08C47E"/>
<path d="M127.652 17.1456C128.41 17.6477 129 18.3171 129.421 19.154C129.843 20.0745 130.011 20.995 130.011 22.0828C130.011 23.2544 129.843 24.1749 129.421 25.0117C129 25.8485 128.41 26.518 127.652 26.9364C126.894 27.4385 126.051 27.6058 125.124 27.6058C124.366 27.6058 123.692 27.4385 123.102 27.1038C122.512 26.769 122.007 26.3506 121.67 25.7648V29.9489C121.67 30.3674 121.501 30.7858 121.248 31.0368C120.911 31.2879 120.574 31.4552 120.069 31.4552C119.563 31.4552 119.142 31.2879 118.805 31.0368C118.468 30.7858 118.299 30.3674 118.299 29.8653V18.0661C118.299 17.564 118.468 17.2293 118.805 16.8945C119.142 16.5598 119.563 16.4761 120.069 16.4761C120.574 16.4761 120.996 16.6435 121.333 16.8945C121.67 17.1456 121.754 17.564 121.754 18.0661V18.2335C122.091 17.6477 122.596 17.2293 123.186 16.8945C123.776 16.5598 124.534 16.3925 125.208 16.3925C126.051 16.3925 126.978 16.6435 127.652 17.1456ZM125.967 24.4259C126.388 23.9238 126.641 23.087 126.641 22.1665C126.641 21.1623 126.388 20.4092 125.967 19.8234C125.545 19.2376 124.871 18.9866 124.197 18.9866C123.355 18.9866 122.765 19.2376 122.428 19.8234C122.091 20.4092 121.754 21.1623 121.754 22.0828C121.754 23.087 122.007 23.8402 122.428 24.3422C122.849 24.928 123.523 25.1791 124.197 25.1791C125.04 25.2627 125.63 25.0117 125.967 24.4259Z" fill="#08C47E"/>
<path d="M28.49 40H11.807C5.31921 40 0.0109863 34.728 0.0109863 28.2845V11.7155C0.0109863 5.27197 5.31921 0 11.807 0H28.49C34.9778 0 40.2861 5.27197 40.2861 11.7155V28.2845C40.2861 34.728 35.0621 40 28.49 40Z" fill="#F7F5F3"/>
<path opacity="0.03" d="M5.57202 23.8494L21.7495 39.9163H28.49C34.9779 39.9163 40.2861 34.6444 40.2861 28.2009V27.113L35.4834 22.3431L18.2949 17.3222L5.57202 23.8494Z" fill="black"/>
<path d="M27.1418 15.1465C27.1418 15.3138 27.2261 15.3975 27.3946 15.3975H27.4789C27.2261 15.4812 27.1418 15.3138 27.1418 15.1465Z" fill="#0EC77C"/>
<path d="M27.3946 10.7113C27.2261 10.7113 27.1418 10.795 27.1418 10.9623C27.1418 10.8786 27.2261 10.7113 27.3946 10.7113Z" fill="#0EC77C"/>
<path opacity="0.1" d="M13.52 27.0469C15.0091 27.0469 16.2162 25.848 16.2162 24.3691C16.2162 22.8902 15.0091 21.6913 13.52 21.6913C12.0309 21.6913 10.8237 22.8902 10.8237 24.3691C10.8237 25.848 12.0309 27.0469 13.52 27.0469Z" fill="#08C47E"/>
<path opacity="0.1" d="M27.0854 21.6904C25.653 21.6067 24.3049 22.6946 24.2206 24.1172C24.1364 25.5398 25.2317 26.8787 26.6641 26.9624C28.0965 27.0461 29.4446 25.9582 29.5288 24.5356C29.5288 24.3682 29.5288 24.2845 29.5288 24.1172C29.4446 22.862 28.3492 21.8578 27.0854 21.6904Z" fill="#08C47E"/>
<path d="M13.4896 25.3414C14.048 25.3414 14.5007 24.8919 14.5007 24.3373C14.5007 23.7827 14.048 23.3331 13.4896 23.3331C12.9312 23.3331 12.4785 23.7827 12.4785 24.3373C12.4785 24.8919 12.9312 25.3414 13.4896 25.3414Z" fill="#08C47E"/>
<path d="M26.8866 25.3415C27.445 25.3415 27.8977 24.8919 27.8977 24.3373C27.8977 23.7827 27.445 23.3331 26.8866 23.3331C26.3282 23.3331 25.8755 23.7827 25.8755 24.3373C25.8755 24.8919 26.3282 25.3415 26.8866 25.3415Z" fill="#08C47E"/>
<g opacity="0.1">
<path opacity="0.1" d="M11.1827 10.7213H6.21154C6.04302 10.7213 5.87451 10.805 5.87451 10.9724V17.1649C5.87451 17.2485 5.95877 17.3322 6.04302 17.3322H7.64392C9.75036 17.3322 11.4355 16.077 11.4355 14.5707V10.805C11.3513 10.7213 11.267 10.7213 11.1827 10.7213Z" fill="white"/>
<path opacity="0.1" d="M18.5131 10.7213H12.6993C12.5308 10.7213 12.4465 10.8887 12.4465 10.9724V15.1565C12.4465 15.3239 12.6151 15.4075 12.6993 15.4075H18.5131C18.6816 15.4075 18.7658 15.2402 18.7658 15.1565V10.9724C18.7658 10.805 18.5973 10.7213 18.5131 10.7213Z" fill="white"/>
<path opacity="0.1" d="M25.8434 10.7213H20.0296C19.8611 10.7213 19.7769 10.8887 19.7769 10.9724V15.1565C19.7769 15.3239 19.9454 15.4075 20.0296 15.4075H25.8434C26.0119 15.4075 26.0962 15.2402 26.0962 15.1565V10.9724C26.1804 10.805 26.0119 10.7213 25.8434 10.7213Z" fill="white"/>
<path opacity="0.1" d="M31.7415 10.7213H27.4444C27.2759 10.7213 27.1917 10.8887 27.1917 10.9724V15.1565C27.1917 15.3239 27.3602 15.4075 27.4444 15.4075H31.7415C31.8258 15.4075 31.9943 15.3239 31.9943 15.1565V10.9724C31.9101 10.8887 31.8258 10.7213 31.7415 10.7213Z" fill="white"/>
</g>
<path d="M27.3105 30.795C27.2262 30.7113 27.0577 30.6276 26.8892 30.795L26.7207 30.8787L26.1309 31.3808C26.0466 31.4644 25.9623 31.4644 25.8781 31.5481L25.7938 31.6318C25.5411 31.7992 25.2883 31.9665 24.9513 32.1339C24.867 32.1339 24.867 32.2176 24.7827 32.2176C24.7827 32.2176 24.6985 32.2176 24.6985 32.3013L24.4457 32.3849L24.0244 32.5523H23.9402L23.6031 32.7197C23.5189 32.7197 23.5189 32.8034 23.4346 32.8034H23.3504L23.1818 32.887H23.0976C23.0976 32.887 23.0976 32.887 23.0133 32.887L22.6763 32.9707C22.255 33.0544 21.8337 33.2218 21.4124 33.2218C20.9912 33.3055 20.4856 33.3055 20.0643 33.3055C19.643 33.3055 19.1375 33.3055 18.7162 33.2218C18.2949 33.1381 17.8736 33.0544 17.4523 32.9707L17.1153 32.887H17.0311L16.8625 32.8034H16.7783C16.694 32.8034 16.694 32.8034 16.6098 32.7197L16.357 32.636C16.357 32.636 16.357 32.636 16.2727 32.636H16.1885L15.7672 32.4686L15.5144 32.3849H15.4302C15.3459 32.3849 15.3459 32.3013 15.2616 32.3013L15.0089 32.2176C14.9246 32.2176 14.8404 32.1339 14.7561 32.1339L14.5033 31.9665C14.4191 31.9665 14.4191 31.8829 14.3348 31.8829L14.2506 31.7992C14.1663 31.7155 14.082 31.7155 13.9978 31.6318L13.745 31.4644C13.9135 31.4644 13.9978 31.4644 14.1663 31.4644C14.2506 31.4644 14.3348 31.4644 14.3348 31.3808C14.3348 31.2971 14.3348 31.2134 14.2506 31.1297C13.8293 30.8787 13.408 30.795 12.9024 30.7113C12.7339 30.7113 12.6497 30.7113 12.6497 30.9624C12.6497 31.2134 12.6497 31.4644 12.7339 31.7155C12.7339 31.8829 12.8182 32.1339 12.9024 32.3013C12.9024 32.3849 12.9867 32.4686 13.0709 32.4686H13.1552C13.2395 32.3013 13.2395 32.1339 13.2395 31.9665L13.4922 32.2176C13.5765 32.3013 13.6608 32.3013 13.745 32.3849L13.8293 32.4686C13.9135 32.4686 13.9135 32.5523 13.9978 32.5523L14.2506 32.7197C14.2506 32.7197 14.3348 32.7197 14.3348 32.8034L14.6718 33.0544C14.7561 33.0544 14.7561 33.1381 14.8404 33.1381C14.8404 33.1381 14.9246 33.1381 14.9246 33.2218L15.1774 33.3891L15.5987 33.6402L15.6829 33.7239L16.02 33.8912C16.1042 33.8912 16.1885 33.9749 16.1885 33.9749H16.2727L16.4412 34.0586H16.5255C16.5255 34.0586 16.5255 34.0586 16.6098 34.0586L16.9468 34.1423C17.0311 34.1423 17.031 34.1423 17.1153 34.226C17.2838 34.3096 17.4523 34.3096 17.6209 34.3933L17.8736 34.477L18.2949 34.5607C19.306 34.728 20.3171 34.6444 21.3282 34.477L21.7495 34.3933L22.0022 34.3096C22.1708 34.3096 22.3393 34.226 22.5078 34.1423C22.592 34.1423 22.592 34.1423 22.6763 34.0586L23.0976 33.8912H23.1818L23.3504 33.8075C23.3504 33.8075 23.4346 33.8075 23.4346 33.7239C23.5189 33.7239 23.6031 33.6402 23.6031 33.6402L23.9402 33.4728L24.0244 33.3891L24.4457 33.1381L24.6985 32.9707C24.6985 32.9707 24.7827 32.9707 24.7827 32.887C24.867 32.887 24.867 32.8034 24.9513 32.8034L25.204 32.636C25.2883 32.5523 25.3725 32.5523 25.3725 32.4686L25.6253 32.3013C25.7096 32.3013 25.7096 32.2176 25.7938 32.2176L25.8781 32.1339L26.1309 31.9665L26.4679 31.6318C26.4679 31.6318 26.4679 31.5481 26.5521 31.5481L26.8049 31.2134C27.3947 31.046 27.479 30.8787 27.3105 30.795Z" fill="url(#paint0_linear)"/>
<path d="M35.4833 11.9665V10.7113C35.4833 9.03764 34.0509 7.78241 32.45 7.78241H7.93107C6.41444 7.78241 5.06631 8.87027 4.8978 10.3766C4.8978 10.795 4.81354 11.2971 4.8978 11.7155V12.7196V21.9247C4.8978 23.5983 6.33018 24.8535 7.93107 24.8535H9.869C10.206 26.8619 12.0597 28.2008 13.9976 27.9498C15.5985 27.6987 16.8624 26.4435 17.1151 24.8535H23.2659C23.603 26.8619 25.4566 28.2008 27.3945 27.9498C28.9954 27.6987 30.2593 26.4435 30.5121 24.8535H32.45C34.1351 24.8535 35.4833 23.5983 35.4833 21.9247V15.7322V11.9665ZM7.59404 17.3222H5.99315C5.90889 17.3222 5.82464 17.2385 5.82464 17.1548V10.9623C5.82464 10.795 5.99315 10.7113 6.16166 10.7113H11.1329C11.2171 10.7113 11.3014 10.795 11.3014 10.8786V14.6443C11.3856 16.0669 9.70047 17.3222 7.59404 17.3222ZM13.4921 27.0293C11.9754 27.0293 10.7958 25.8577 10.7958 24.3514C10.7958 22.8452 11.9754 21.6736 13.4921 21.6736C15.0087 21.6736 16.1883 22.8452 16.1883 24.3514C16.1883 25.8577 14.9244 27.0293 13.4921 27.0293ZM18.8003 15.1464C18.8003 15.3138 18.6318 15.3975 18.5475 15.3975H12.7337C12.5652 15.3975 12.481 15.2301 12.481 15.1464V10.9623C12.481 10.795 12.6495 10.7113 12.7337 10.7113H18.5475C18.716 10.7113 18.8003 10.8786 18.8003 10.9623V15.1464ZM19.7271 15.1464V10.9623C19.7271 10.795 19.8956 10.7113 19.9799 10.7113H25.7937C25.9622 10.7113 26.0464 10.8786 26.0464 10.9623V15.1464C26.0464 15.3138 25.8779 15.3975 25.7937 15.3975H19.9799C19.8956 15.4812 19.7271 15.3138 19.7271 15.1464ZM26.889 27.0293C25.3724 27.0293 24.1928 25.8577 24.1928 24.3514C24.1928 22.8452 25.3724 21.6736 26.889 21.6736C28.4056 21.6736 29.5852 22.8452 29.5852 24.3514C29.501 25.8577 28.3214 27.0293 26.889 27.0293ZM31.9445 15.1464C31.9445 15.3138 31.8602 15.3975 31.6917 15.3975H27.3103C27.226 15.3975 27.0575 15.3138 27.0575 15.1464V10.9623C27.0575 10.795 27.1418 10.7113 27.3103 10.7113H31.6917C31.7759 10.7113 31.9445 10.795 31.9445 10.9623V15.1464Z" fill="url(#paint1_linear)"/>
<defs>
<linearGradient id="paint0_linear" x1="20.1136" y1="34.6834" x2="20.1001" y2="30.6323" gradientUnits="userSpaceOnUse">
<stop stop-color="#10AF7E"/>
<stop offset="1" stop-color="#00DB7E"/>
</linearGradient>
<linearGradient id="paint1_linear" x1="20.3695" y1="28.1408" x2="20.2004" y2="7.446" gradientUnits="userSpaceOnUse">
<stop stop-color="#10AF7E"/>
<stop offset="1" stop-color="#00DB7E"/>
</linearGradient>
</defs>
</svg>
