<svg id="Layer_1" data-name="Layer 1" xmlns="http://www.w3.org/2000/svg" viewBox="0 0 154.2 65"><defs><style>.cls-1,.cls-3{fill:#fff;}.cls-2{fill:#0ec77c;}.cls-3,.cls-4{opacity:0.1;}.cls-3{isolation:isolate;}</style></defs><path class="cls-1" d="M71.9,33.7a4.76,4.76,0,0,1,.9,2.9A4.33,4.33,0,0,1,71,40.3a7.62,7.62,0,0,1-4.8,1.4H59.3a2.46,2.46,0,0,1-1.5-.5,2.07,2.07,0,0,1-.5-1.5V24.9a2.46,2.46,0,0,1,.5-1.5,2.07,2.07,0,0,1,1.5-.5h6.6a7,7,0,0,1,4.6,1.3,4.13,4.13,0,0,1,1.7,3.5,3.94,3.94,0,0,1-.8,2.5,4.74,4.74,0,0,1-2.1,1.6A7.63,7.63,0,0,1,71.9,33.7ZM61.3,30.6h3.9a3.34,3.34,0,0,0,2.3-.6,2,2,0,0,0,.8-1.7,1.88,1.88,0,0,0-.8-1.7,3.71,3.71,0,0,0-2.3-.6H61.3ZM68.1,38a2.2,2.2,0,0,0,.8-1.8,2.41,2.41,0,0,0-.8-1.9,3.71,3.71,0,0,0-2.3-.6H61.4v4.8h4.4A3.17,3.17,0,0,0,68.1,38Z"/><path class="cls-1" d="M87.2,28.9a1.68,1.68,0,0,1,.6,1.4V40a1.82,1.82,0,0,1-.6,1.4,2.46,2.46,0,0,1-1.5.5,2.17,2.17,0,0,1-1.4-.5,1.9,1.9,0,0,1-.5-1.3v-.2a4.89,4.89,0,0,1-1.6,1.6A4.19,4.19,0,0,1,80,42a4.82,4.82,0,0,1-3.7-1.4,5.91,5.91,0,0,1-1.2-4.1V30.3a1.68,1.68,0,0,1,.6-1.4,2.5,2.5,0,0,1,3,0,1.62,1.62,0,0,1,.5,1.4v6.2a3,3,0,0,0,.5,1.8,1.75,1.75,0,0,0,1.5.6,2.56,2.56,0,0,0,1.9-.8,3,3,0,0,0,.7-2.1V30.4a2,2,0,0,1,.5-1.4,2.46,2.46,0,0,1,1.5-.5A1.59,1.59,0,0,1,87.2,28.9Z"/><path class="cls-1" d="M93,41.6a6.67,6.67,0,0,1-2.1-.9,1.34,1.34,0,0,1-.6-.7,2.92,2.92,0,0,1-.2-.9,1.16,1.16,0,0,1,.4-1,1,1,0,0,1,.9-.4,1.7,1.7,0,0,1,.7.1c.2.1.5.2.7.3l1.5.6a9,9,0,0,0,1.8.2,3.34,3.34,0,0,0,1.5-.3.82.82,0,0,0,.5-.8.85.85,0,0,0-.2-.6,1.51,1.51,0,0,0-.9-.4c-.5-.1-1.1-.3-2-.5a7.23,7.23,0,0,1-3.4-1.4,3.25,3.25,0,0,1-1.1-2.5,3.14,3.14,0,0,1,.7-2.1,4.26,4.26,0,0,1,2-1.5,6.71,6.71,0,0,1,2.8-.6,7.8,7.8,0,0,1,2.2.3,11.92,11.92,0,0,1,2,.8,1.48,1.48,0,0,1,.8,1.5,1.5,1.5,0,0,1-.4,1.1,1,1,0,0,1-.9.4,3.74,3.74,0,0,1-1.5-.5c-.5-.2-.9-.4-1.2-.5a5.07,5.07,0,0,0-1.3-.2,2.27,2.27,0,0,0-1.3.3,1.05,1.05,0,0,0-.5.9,1,1,0,0,0,.6.9,9.3,9.3,0,0,0,2.1.6,7.06,7.06,0,0,1,2.7.9,3.24,3.24,0,0,1,1.5,1.3,3.56,3.56,0,0,1,.5,1.9,3.42,3.42,0,0,1-1.6,3A6.62,6.62,0,0,1,95.6,42,17.82,17.82,0,0,1,93,41.6Z"/><path class="cls-1" d="M122.1,23.5a2,2,0,0,1,.6,1.5V40a1.74,1.74,0,0,1-1.9,1.9,1.9,1.9,0,0,1-1.3-.5A2,2,0,0,1,119,40V30.6l-3.7,7a2.9,2.9,0,0,1-.8,1,2,2,0,0,1-1.1.3,2.28,2.28,0,0,1-1.1-.3,2.72,2.72,0,0,1-.8-1l-3.7-6.9v9.2a2.17,2.17,0,0,1-.5,1.4,1.62,1.62,0,0,1-1.4.5,1.9,1.9,0,0,1-1.3-.5,2,2,0,0,1-.5-1.4v-15a2.05,2.05,0,0,1,2.1-2.1,2.23,2.23,0,0,1,2,1.4l5.4,10.2L119,24.2a2.23,2.23,0,0,1,2-1.4A3.78,3.78,0,0,1,122.1,23.5Z"/><path class="cls-1" d="M136.2,29.8a5.84,5.84,0,0,1,1.4,4.3v6a1.74,1.74,0,0,1-1.9,1.9,2.17,2.17,0,0,1-1.4-.5,1.62,1.62,0,0,1-.5-1.4v-.2a3.11,3.11,0,0,1-1.4,1.6,3.94,3.94,0,0,1-2.1.6,6,6,0,0,1-2.4-.5,5,5,0,0,1-1.7-1.5,4.2,4.2,0,0,1-.6-2.1,2.92,2.92,0,0,1,.7-2.2,4.57,4.57,0,0,1,2.3-1.2,23.59,23.59,0,0,1,4.4-.4h.7v-.5a2.65,2.65,0,0,0-.5-1.7,2.46,2.46,0,0,0-1.7-.5,11,11,0,0,0-3.3.8,2.61,2.61,0,0,1-1.1.3,1,1,0,0,1-.9-.4,1.82,1.82,0,0,1-.4-1.1,2,2,0,0,1,.2-.9,2.85,2.85,0,0,1,.8-.7,11.26,11.26,0,0,1,2.2-.8,12.22,12.22,0,0,1,2.6-.3C133.8,28.3,135.2,28.8,136.2,29.8ZM133,38.4a2.82,2.82,0,0,0,.7-2.1v-.5h-.5a7.09,7.09,0,0,0-3,.4,1.29,1.29,0,0,0-.9,1.3,1.66,1.66,0,0,0,.5,1.2,1.9,1.9,0,0,0,1.3.5A2.56,2.56,0,0,0,133,38.4Z"/><path class="cls-1" d="M151.5,29.2a6.11,6.11,0,0,1,2.1,2.4,8.12,8.12,0,0,1,.7,3.5,7.55,7.55,0,0,1-.7,3.5,5.53,5.53,0,0,1-5.1,3.1,4.75,4.75,0,0,1-2.4-.6,4.36,4.36,0,0,1-1.7-1.6v5a1.9,1.9,0,0,1-.5,1.3,2.17,2.17,0,0,1-1.4.5,2.46,2.46,0,0,1-1.5-.5,1.68,1.68,0,0,1-.6-1.4V30.3a1.82,1.82,0,0,1,.6-1.4,2,2,0,0,1,1.5-.5,2.46,2.46,0,0,1,1.5.5,1.62,1.62,0,0,1,.5,1.4v.2a4.36,4.36,0,0,1,1.7-1.6,5.11,5.11,0,0,1,5.3.3Zm-2,8.7a4.34,4.34,0,0,0,.8-2.7,4.65,4.65,0,0,0-.8-2.8,2.51,2.51,0,0,0-2.1-1,2.18,2.18,0,0,0-2.1,1,5.38,5.38,0,0,0-.8,2.7,4.14,4.14,0,0,0,.8,2.7,2.51,2.51,0,0,0,2.1,1A2,2,0,0,0,149.5,37.9Z"/><g id="Group_578" data-name="Group 578"><path id="Path_223" data-name="Path 223" class="cls-2" d="M32.21,26.81a.27.27,0,0,0,.3.3h.1C32.31,27.21,32.21,27,32.21,26.81Z"/><path id="Path_224" data-name="Path 224" class="cls-2" d="M32.51,21.51h0a.27.27,0,0,0-.3.3.32.32,0,0,1,.3-.3Z"/><g id="Group_574" data-name="Group 574"><g id="Group_572" data-name="Group 572"><circle id="Ellipse_27" data-name="Ellipse 27" class="cls-3" cx="16.04" cy="37.83" r="3.2"/><path id="Path_225" data-name="Path 225" class="cls-3" d="M32.14,34.63A3.16,3.16,0,1,0,35,38v-.5A3.29,3.29,0,0,0,32.14,34.63Z"/></g><g id="Group_573" data-name="Group 573"><circle id="Ellipse_28" data-name="Ellipse 28" class="cls-1" cx="16.01" cy="37.79" r="1.2"/><circle id="Ellipse_29" data-name="Ellipse 29" class="cls-1" cx="31.91" cy="37.79" r="1.2"/></g></g><g id="Group_575" data-name="Group 575" class="cls-4"><path id="Path_226" data-name="Path 226" class="cls-1" d="M13.27,21.52H7.37c-.2,0-.4.1-.4.3v7.4a.22.22,0,0,0,.2.2h1.9c2.5,0,4.5-1.5,4.5-3.3v-4.5A.37.37,0,0,0,13.27,21.52Z"/><path id="Path_227" data-name="Path 227" class="cls-1" d="M22,21.52h-6.9a.32.32,0,0,0-.3.3h0v5a.32.32,0,0,0,.3.3H22a.32.32,0,0,0,.3-.3h0v-5A.32.32,0,0,0,22,21.52Z"/><path id="Path_228" data-name="Path 228" class="cls-1" d="M30.67,21.52h-6.9a.32.32,0,0,0-.3.3h0v5a.32.32,0,0,0,.3.3h6.9a.32.32,0,0,0,.3-.3h0v-5c.1-.2-.1-.3-.3-.3Z"/><path id="Path_229" data-name="Path 229" class="cls-1" d="M37.67,21.52h-5.1a.32.32,0,0,0-.3.3h0v5h0a.32.32,0,0,0,.3.3h5.1a.32.32,0,0,0,.3-.3v-5c-.1-.1-.2-.3-.3-.3Z"/></g><path class="cls-1" d="M32.41,45.51a.33.33,0,0,0-.5,0l-.2.1-.7.6c-.1.1-.2.1-.3.2l-.1.1a8.79,8.79,0,0,1-1,.6c-.1,0-.1.1-.2.1a.1.1,0,0,0-.1.1l-.3.1-.5.2h-.1l-.4.2c-.1,0-.1.1-.2.1h-.1l-.2.1h-.2l-.4.1a8,8,0,0,1-1.5.3,8.6,8.6,0,0,1-1.6.1,8.6,8.6,0,0,1-1.6-.1l-1.5-.3-.4-.1h-.1l-.2-.1h-.1c-.1,0-.1,0-.2-.1l-.3-.1h-.2l-.5-.2-.3-.1h-.1c-.1,0-.1-.1-.2-.1l-.3-.1c-.1,0-.2-.1-.3-.1l-.3-.2c-.1,0-.1-.1-.2-.1l-.1-.1c-.1-.1-.2-.1-.3-.2l-.3-.2h.5c.1,0,.2,0,.2-.1a.37.37,0,0,0-.1-.3,4.28,4.28,0,0,0-1.6-.5c-.2,0-.3,0-.3.3a2.77,2.77,0,0,0,.1.9,1.85,1.85,0,0,0,.2.7.22.22,0,0,0,.2.2h.1a1.27,1.27,0,0,0,.1-.6l.3.3c.1.1.2.1.3.2l.1.1c.1,0,.1.1.2.1l.3.2h0a.1.1,0,0,1,.1.1l.4.3c.1,0,.1.1.2.1a.1.1,0,0,1,.1.1l.3.2.5.3.1.1.4.2a.35.35,0,0,1,.2.1h.1l.2.1h.2l.4.1c.1,0,.1,0,.2.1s.4.1.6.2l.3.1.5.1a10.89,10.89,0,0,0,3.6-.1l.5-.1.3-.1a1.42,1.42,0,0,0,.6-.2c.1,0,.1,0,.2-.1l.5-.2h.1l.2-.1a.1.1,0,0,0,.1-.1.35.35,0,0,0,.2-.1l.4-.2.1-.1.5-.3.3-.2a.1.1,0,0,0,.1-.1c.1,0,.1-.1.2-.1l.3-.2c.1-.1.2-.1.2-.2l.3-.2c.1,0,.1-.1.2-.1l.1-.1.3-.2.4-.4a.1.1,0,0,1,.1-.1l.3-.4C32.51,45.81,32.61,45.61,32.41,45.51Z"/><path id="Path_238" data-name="Path 238" class="cls-1" d="M42.11,23v-1.5a3.56,3.56,0,0,0-3.6-3.5H9.41a3.58,3.58,0,0,0-3.6,3.1,8.55,8.55,0,0,0,0,1.6h0v1.2h0v11a3.56,3.56,0,0,0,3.6,3.5h2.3a4.43,4.43,0,0,0,4.9,3.7,4.46,4.46,0,0,0,3.7-3.7h7.3a4.34,4.34,0,0,0,8.6,0h2.3a3.5,3.5,0,0,0,3.6-3.5v-7.4h0V23ZM9,29.41H7.11a.22.22,0,0,1-.2-.2v-7.4c0-.2.2-.3.4-.3h5.9a.22.22,0,0,1,.2.2v4.5c.1,1.7-1.9,3.2-4.4,3.2ZM16,41a3.2,3.2,0,1,1,3.2-3.2h0A3.22,3.22,0,0,1,16,41Zm6.3-14.2a.32.32,0,0,1-.3.3h-6.9a.32.32,0,0,1-.3-.3h0v-5a.32.32,0,0,1,.3-.3H22a.32.32,0,0,1,.3.3h0Zm1.1,0v-5a.32.32,0,0,1,.3-.3h6.9a.32.32,0,0,1,.3.3h0v5a.32.32,0,0,1-.3.3h-6.9c-.1.1-.3-.1-.3-.3ZM31.91,41a3.2,3.2,0,1,1,3.2-3.2h0a3.29,3.29,0,0,1-3.2,3.2Zm6-14.2a.27.27,0,0,1-.3.3h-5.2a.32.32,0,0,1-.3-.3h0v-5h0a.27.27,0,0,1,.3-.3h5.2a.32.32,0,0,1,.3.3Z"/></g></svg>