<svg width="130" height="40" viewBox="0 0 130 40" fill="none" xmlns="http://www.w3.org/2000/svg">
<path d="M60.5719 20.9114C61.0774 21.5809 61.3302 22.4177 61.3302 23.3382C61.3302 24.6771 60.8246 25.6813 59.8135 26.4344C58.8024 27.1876 57.5386 27.606 55.7692 27.606H49.9554C49.4499 27.606 49.0286 27.4386 48.6916 27.1876C48.4388 26.9365 48.2703 26.5181 48.2703 25.9324V13.5474C48.2703 13.0453 48.4388 12.6269 48.6916 12.2922C48.9443 12.0411 49.3656 11.8738 49.9554 11.8738H55.5164C57.2016 11.8738 58.4654 12.2085 59.3923 12.9616C60.4033 13.7148 60.8246 14.719 60.8246 15.8905C60.8246 16.7273 60.5719 17.4805 60.1506 17.9826C59.7293 18.5683 59.0552 19.0704 58.3812 19.3215C59.308 19.8236 60.0663 20.242 60.5719 20.9114ZM51.6406 18.3173H54.9266C55.8534 18.3173 56.5275 18.1499 56.8645 17.8152C57.2858 17.4805 57.5386 17.0621 57.5386 16.3926C57.5386 15.7232 57.2858 15.2211 56.8645 14.97C56.4432 14.6353 55.7692 14.4679 54.9266 14.4679H51.6406V18.3173ZM57.3701 24.5098C57.7914 24.175 58.0441 23.6729 58.0441 23.0035C58.0441 22.334 57.7914 21.7483 57.3701 21.4135C56.9488 21.0788 56.2747 20.9114 55.4322 20.9114H51.7248V24.9282H55.4322C56.2747 25.0119 56.9488 24.8445 57.3701 24.5098Z" fill="#F7F5F3"/>
<path d="M73.4633 16.8947C73.8003 17.1458 73.9688 17.5642 73.9688 18.0663V26.1834C73.9688 26.6855 73.8003 27.0203 73.4633 27.355C73.1263 27.606 72.705 27.7734 72.1994 27.7734C71.6939 27.7734 71.3569 27.606 71.0198 27.355C70.7671 27.1039 70.5985 26.6855 70.5985 26.2671V26.0997C70.2615 26.6855 69.756 27.1039 69.2504 27.4387C68.6606 27.7734 68.0708 27.8571 67.3968 27.8571C65.9644 27.8571 65.0376 27.4387 64.2792 26.6855C63.6052 25.9324 63.2681 24.8445 63.2681 23.2546V18.0663C63.2681 17.5642 63.4367 17.1458 63.7737 16.8947C64.1107 16.6437 64.532 16.4763 65.0375 16.4763C65.5431 16.4763 65.9644 16.6437 66.3014 16.8947C66.6384 17.1458 66.7227 17.5642 66.7227 18.0663V23.2546C66.7227 23.924 66.8912 24.4261 67.144 24.7608C67.3968 25.0956 67.818 25.2629 68.4078 25.2629C69.0819 25.2629 69.5875 25.0119 70.0087 24.5935C70.43 24.1751 70.5985 23.5056 70.5985 22.8362V18.15C70.5985 17.6479 70.7671 17.2295 71.0198 16.9784C71.3569 16.7274 71.7782 16.56 72.2837 16.56C72.7892 16.4763 73.2105 16.6437 73.4633 16.8947Z" fill="#F7F5F3"/>
<path d="M78.3502 27.5222C77.6761 27.3549 77.0863 27.1038 76.5808 26.7691C76.328 26.6017 76.1595 26.4344 76.0752 26.1833C75.991 25.9323 75.9067 25.6812 75.9067 25.4302C75.9067 25.0954 75.991 24.7607 76.2437 24.5934C76.4123 24.3423 76.665 24.2586 77.0021 24.2586C77.1706 24.2586 77.4233 24.2586 77.5919 24.3423C77.7604 24.426 78.0131 24.5097 78.1817 24.5934C78.603 24.7607 79.0242 24.9281 79.4455 25.0954C79.8668 25.1791 80.3724 25.2628 80.9622 25.2628C81.4677 25.2628 81.889 25.1791 82.226 25.0118C82.563 24.8444 82.6473 24.5934 82.6473 24.3423C82.6473 24.0913 82.5631 23.9239 82.4788 23.8402C82.3103 23.6729 82.1418 23.5892 81.7205 23.5055C81.2992 23.4218 80.7936 23.2544 80.0353 23.0871C78.6872 22.836 77.7604 22.4176 77.1706 21.9155C76.5808 21.4134 76.2437 20.6603 76.2437 19.8235C76.2437 19.154 76.4123 18.5683 76.8335 18.0662C77.2548 17.4804 77.8446 17.062 78.5187 16.8109C79.277 16.4762 80.0353 16.3088 80.8779 16.3088C81.552 16.3088 82.1418 16.3925 82.7316 16.5599C83.3214 16.7272 83.9112 16.9783 84.4167 17.2293C84.9223 17.4804 85.0908 17.8988 85.0908 18.4846C85.0908 18.8193 85.0065 19.154 84.7537 19.4051C84.5852 19.6561 84.3325 19.7398 83.9954 19.7398C83.6584 19.7398 83.2371 19.5724 82.7316 19.3214C82.3103 19.154 81.9732 18.9867 81.7205 18.903C81.3834 18.8193 81.0464 18.7356 80.6251 18.7356C80.1196 18.7356 79.7826 18.8193 79.5298 18.9867C79.277 19.154 79.1085 19.4051 79.1085 19.7398C79.1085 20.0745 79.277 20.3256 79.614 20.4929C79.9511 20.6603 80.5409 20.8277 81.3834 20.995C82.3945 21.1624 83.1529 21.4134 83.6584 21.7482C84.2482 21.9992 84.6695 22.4176 84.9223 22.836C85.175 23.2544 85.3435 23.7565 85.3435 24.426C85.3435 25.5139 84.9223 26.267 83.9954 26.9365C83.0686 27.6059 81.9732 27.857 80.5409 27.857C79.7826 27.7733 78.94 27.6896 78.3502 27.5222Z" fill="#F7F5F3"/>
<path d="M102.869 12.3758C103.206 12.7105 103.375 13.129 103.375 13.631V26.1833C103.375 26.6854 103.206 27.1038 102.953 27.3549C102.701 27.6059 102.279 27.7733 101.774 27.7733C101.353 27.7733 100.931 27.6059 100.678 27.3549C100.426 27.1038 100.257 26.6854 100.257 26.1833V18.3172L97.1396 24.175C96.8869 24.5934 96.7183 24.8444 96.4656 25.0118C96.2128 25.1792 95.8758 25.2628 95.5387 25.2628C95.2017 25.2628 94.9489 25.1792 94.6119 25.0118C94.3591 24.8444 94.1064 24.5097 93.9378 24.175L90.8203 18.4009V26.0997C90.8203 26.6018 90.6518 26.9365 90.399 27.2712C90.1463 27.6059 89.725 27.6896 89.2194 27.6896C88.7981 27.6896 88.3768 27.5223 88.1241 27.2712C87.8713 27.0202 87.7028 26.6018 87.7028 26.0997V13.5474C87.7028 13.0453 87.8713 12.6269 88.2083 12.2921C88.5454 11.9574 88.9667 11.79 89.4722 11.79C90.2305 11.79 90.7361 12.2085 91.1573 12.9616L95.7072 21.4972L100.257 12.9616C100.678 12.2085 101.184 11.79 101.942 11.79C102.111 11.8737 102.532 12.0411 102.869 12.3758Z" fill="#F7F5F3"/>
<path d="M114.749 17.6479C115.508 18.401 115.929 19.5726 115.929 21.2462V26.2671C115.929 26.7692 115.761 27.1876 115.508 27.4387C115.255 27.6897 114.834 27.8571 114.328 27.8571C113.823 27.8571 113.486 27.6897 113.149 27.4387C112.812 27.1876 112.727 26.7692 112.727 26.2671V26.0998C112.474 26.6855 112.137 27.1039 111.548 27.4387C111.042 27.7734 110.368 27.9408 109.778 27.9408C109.02 27.9408 108.346 27.7734 107.756 27.5224C107.166 27.1876 106.661 26.7692 106.324 26.2671C105.987 25.6813 105.818 25.0956 105.818 24.5098C105.818 23.673 105.987 23.0872 106.408 22.6688C106.829 22.2504 107.503 21.832 108.346 21.6646C109.273 21.4972 110.452 21.3299 112.053 21.3299H112.643V20.9115C112.643 20.242 112.474 19.8236 112.222 19.4889C111.969 19.2378 111.463 19.0705 110.789 19.0705C110.115 19.0705 109.188 19.3215 108.009 19.7399C107.672 19.9073 107.335 19.991 107.082 19.991C106.745 19.991 106.492 19.9073 106.324 19.6562C106.155 19.4052 105.987 19.1542 105.987 18.7357C105.987 18.401 106.071 18.15 106.155 17.9826C106.324 17.8152 106.492 17.5642 106.829 17.3968C107.335 17.1458 108.009 16.8947 108.683 16.7274C109.441 16.56 110.2 16.4763 110.874 16.4763C112.727 16.3926 113.907 16.8111 114.749 17.6479ZM112.053 24.8445C112.474 24.4261 112.643 23.8403 112.643 23.0872V22.6688H112.222C110.958 22.6688 110.2 22.7525 109.694 23.0035C109.188 23.1709 108.936 23.5893 108.936 24.0914C108.936 24.5098 109.104 24.8445 109.357 25.0956C109.61 25.3466 110.031 25.514 110.452 25.514C111.126 25.514 111.632 25.2629 112.053 24.8445Z" fill="#F7F5F3"/>
<path d="M127.641 17.1457C128.399 17.6478 128.989 18.3173 129.41 19.1541C129.831 20.0746 130 20.9951 130 22.083C130 23.2545 129.831 24.175 129.41 25.0118C128.989 25.8486 128.399 26.5181 127.641 26.9365C126.882 27.4386 126.04 27.606 125.113 27.606C124.355 27.606 123.681 27.4386 123.091 27.1039C122.501 26.7691 121.996 26.3507 121.659 25.765V29.9491C121.659 30.3675 121.49 30.7859 121.237 31.0369C120.9 31.288 120.563 31.4553 120.058 31.4553C119.552 31.4553 119.131 31.288 118.794 31.0369C118.457 30.7859 118.288 30.3675 118.288 29.8654V18.0662C118.288 17.5641 118.457 17.2294 118.794 16.8947C119.131 16.5599 119.552 16.4763 120.058 16.4763C120.563 16.4763 120.984 16.6436 121.321 16.8947C121.659 17.1457 121.743 17.5641 121.743 18.0662V18.2336C122.08 17.6478 122.585 17.2294 123.175 16.8947C123.765 16.5599 124.523 16.3926 125.197 16.3926C126.04 16.3926 126.967 16.6436 127.641 17.1457ZM125.956 24.4261C126.377 23.924 126.63 23.0871 126.63 22.1666C126.63 21.1625 126.377 20.4093 125.956 19.8235C125.534 19.2378 124.86 18.9867 124.186 18.9867C123.344 18.9867 122.754 19.2378 122.417 19.8235C122.08 20.4093 121.743 21.1625 121.743 22.083C121.743 23.0871 121.996 23.8403 122.417 24.3424C122.838 24.9281 123.512 25.1792 124.186 25.1792C125.029 25.2629 125.619 25.0118 125.956 24.4261Z" fill="#F7F5F3"/>
<path d="M28.479 40H11.796C5.30822 40 0 34.728 0 28.2845V11.7155C0 5.27197 5.30822 0 11.796 0H28.479C34.9669 0 40.2751 5.27197 40.2751 11.7155V28.2845C40.2751 34.728 35.0511 40 28.479 40Z" fill="#F7F5F3"/>
<path opacity="0.03" d="M5.561 23.8495L21.7384 39.9164H28.479C34.9669 39.9164 40.2751 34.6444 40.2751 28.2009V27.1131L35.4724 22.3432L18.2839 17.3223L5.561 23.8495Z" fill="black"/>
<path d="M27.1309 15.1465C27.1309 15.3138 27.2152 15.3975 27.3837 15.3975H27.4679C27.2152 15.4812 27.1309 15.3138 27.1309 15.1465Z" fill="#0EC77C"/>
<path d="M27.3837 10.7112C27.2152 10.7112 27.1309 10.7949 27.1309 10.9622C27.1309 10.8785 27.2152 10.7112 27.3837 10.7112Z" fill="#0EC77C"/>
<path opacity="0.1" d="M13.509 27.0468C14.9981 27.0468 16.2052 25.8479 16.2052 24.369C16.2052 22.8901 14.9981 21.6912 13.509 21.6912C12.0199 21.6912 10.8127 22.8901 10.8127 24.369C10.8127 25.8479 12.0199 27.0468 13.509 27.0468Z" fill="#08C47E"/>
<path opacity="0.1" d="M27.0745 21.6903C25.6421 21.6066 24.294 22.6945 24.2097 24.1171C24.1255 25.5397 25.2208 26.8786 26.6532 26.9623C28.0856 27.046 29.4337 25.9581 29.5179 24.5355C29.5179 24.3681 29.5179 24.2845 29.5179 24.1171C29.4337 22.8619 28.3383 21.8577 27.0745 21.6903Z" fill="#08C47E"/>
<path d="M13.4787 25.3414C14.0371 25.3414 14.4898 24.8918 14.4898 24.3372C14.4898 23.7826 14.0371 23.333 13.4787 23.333C12.9203 23.333 12.4676 23.7826 12.4676 24.3372C12.4676 24.8918 12.9203 25.3414 13.4787 25.3414Z" fill="#08C47E"/>
<path d="M26.8756 25.3414C27.434 25.3414 27.8867 24.8918 27.8867 24.3372C27.8867 23.7826 27.434 23.333 26.8756 23.333C26.3172 23.333 25.8645 23.7826 25.8645 24.3372C25.8645 24.8918 26.3172 25.3414 26.8756 25.3414Z" fill="#08C47E"/>
<g opacity="0.1">
<path opacity="0.1" d="M11.1717 10.7214H6.20049C6.03197 10.7214 5.86346 10.8051 5.86346 10.9725V17.165C5.86346 17.2486 5.94772 17.3323 6.03198 17.3323H7.63288C9.73931 17.3323 11.4245 16.0771 11.4245 14.5708V10.8051C11.3402 10.7214 11.2559 10.7214 11.1717 10.7214Z" fill="white"/>
<path opacity="0.1" d="M18.5021 10.7214H12.6883C12.5198 10.7214 12.4355 10.8888 12.4355 10.9725V15.1566C12.4355 15.3239 12.604 15.4076 12.6883 15.4076H18.5021C18.6706 15.4076 18.7548 15.2403 18.7548 15.1566V10.9725C18.7548 10.8051 18.5863 10.7214 18.5021 10.7214Z" fill="white"/>
<path opacity="0.1" d="M25.8325 10.7214H20.0187C19.8502 10.7214 19.7659 10.8888 19.7659 10.9725V15.1566C19.7659 15.3239 19.9344 15.4076 20.0187 15.4076H25.8325C26.001 15.4076 26.0852 15.2403 26.0852 15.1566V10.9725C26.1695 10.8051 26.001 10.7214 25.8325 10.7214Z" fill="white"/>
<path opacity="0.1" d="M31.7305 10.7214H27.4333C27.2648 10.7214 27.1806 10.8888 27.1806 10.9725V15.1566C27.1806 15.3239 27.3491 15.4076 27.4333 15.4076H31.7305C31.8147 15.4076 31.9832 15.3239 31.9832 15.1566V10.9725C31.899 10.8888 31.8147 10.7214 31.7305 10.7214Z" fill="white"/>
</g>
<path d="M27.2994 30.7949C27.2152 30.7112 27.0467 30.6275 26.8782 30.7949L26.7096 30.8786L26.1198 31.3806C26.0356 31.4643 25.9513 31.4643 25.8671 31.548L25.7828 31.6317C25.53 31.7991 25.2773 31.9664 24.9402 32.1338C24.856 32.1338 24.856 32.2175 24.7717 32.2175C24.7717 32.2175 24.6875 32.2175 24.6875 32.3011L24.4347 32.3848L24.0134 32.5522H23.9291L23.5921 32.7196C23.5079 32.7196 23.5079 32.8032 23.4236 32.8032H23.3393L23.1708 32.8869H23.0866C23.0866 32.8869 23.0866 32.8869 23.0023 32.8869L22.6653 32.9706C22.244 33.0543 21.8227 33.2216 21.4014 33.2216C20.9801 33.3053 20.4746 33.3053 20.0533 33.3053C19.632 33.3053 19.1265 33.3053 18.7052 33.2216C18.2839 33.138 17.8626 33.0543 17.4413 32.9706L17.1043 32.8869H17.02L16.8515 32.8032H16.7673C16.683 32.8032 16.683 32.8032 16.5988 32.7196L16.346 32.6359C16.346 32.6359 16.346 32.6359 16.2617 32.6359H16.1775L15.7562 32.4685L15.5034 32.3848H15.4191C15.3349 32.3848 15.3349 32.3011 15.2506 32.3011L14.9979 32.2175C14.9136 32.2175 14.8293 32.1338 14.7451 32.1338L14.4923 31.9664C14.4081 31.9664 14.408 31.8827 14.3238 31.8827L14.2395 31.7991C14.1553 31.7154 14.071 31.7154 13.9868 31.6317L13.734 31.4643C13.9025 31.4643 13.9868 31.4643 14.1553 31.4643C14.2395 31.4643 14.3238 31.4643 14.3238 31.3806C14.3238 31.297 14.3238 31.2133 14.2395 31.1296C13.8183 30.8785 13.397 30.7949 12.8914 30.7112C12.7229 30.7112 12.6386 30.7112 12.6386 30.9622C12.6386 31.2133 12.6386 31.4643 12.7229 31.7154C12.7229 31.8827 12.8072 32.1338 12.8914 32.3011C12.8914 32.3848 12.9757 32.4685 13.0599 32.4685H13.1442C13.2284 32.3011 13.2285 32.1338 13.2285 31.9664L13.4812 32.2175C13.5655 32.3011 13.6497 32.3011 13.734 32.3848L13.8183 32.4685C13.9025 32.4685 13.9025 32.5522 13.9868 32.5522L14.2395 32.7196C14.2395 32.7196 14.3238 32.7196 14.3238 32.8032L14.6608 33.0543C14.7451 33.0543 14.7451 33.138 14.8293 33.138C14.8293 33.138 14.9136 33.138 14.9136 33.2216L15.1664 33.389L15.5877 33.6401L15.6719 33.7237L16.0089 33.8911C16.0932 33.8911 16.1775 33.9748 16.1775 33.9748H16.2617L16.4302 34.0585H16.5145C16.5145 34.0585 16.5145 34.0585 16.5988 34.0585L16.9358 34.1421C17.02 34.1421 17.02 34.1421 17.1043 34.2258C17.2728 34.3095 17.4413 34.3095 17.6098 34.3932L17.8626 34.4769L18.2839 34.5606C19.295 34.7279 20.3061 34.6442 21.3172 34.4769L21.7385 34.3932L21.9912 34.3095C22.1597 34.3095 22.3283 34.2258 22.4968 34.1421C22.581 34.1421 22.581 34.1421 22.6653 34.0585L23.0866 33.8911H23.1708L23.3393 33.8074C23.3393 33.8074 23.4236 33.8074 23.4236 33.7237C23.5079 33.7237 23.5921 33.6401 23.5921 33.6401L23.9291 33.4727L24.0134 33.389L24.4347 33.138L24.6875 32.9706C24.6875 32.9706 24.7717 32.9706 24.7717 32.8869C24.856 32.8869 24.856 32.8032 24.9402 32.8032L25.193 32.6359C25.2773 32.5522 25.3615 32.5522 25.3615 32.4685L25.6143 32.3011C25.6986 32.3011 25.6986 32.2175 25.7828 32.2175L25.8671 32.1338L26.1198 31.9664L26.4569 31.6317C26.4569 31.6317 26.4569 31.548 26.5411 31.548L26.7939 31.2133C27.3837 31.0459 27.468 30.8786 27.2994 30.7949Z" fill="url(#paint0_linear)"/>
<path d="M35.4724 11.9666V10.7113C35.4724 9.0377 34.04 7.78247 32.4391 7.78247H7.92018C6.40354 7.78247 5.05542 8.87034 4.8869 10.3766C4.8869 10.795 4.80265 11.2971 4.8869 11.7155V12.7197V21.9247C4.8869 23.5984 6.31929 24.8536 7.92018 24.8536H9.8581C10.1951 26.862 12.0488 28.2009 13.9867 27.9498C15.5876 27.6988 16.8515 26.4436 17.1042 24.8536H23.255C23.5921 26.862 25.4457 28.2009 27.3836 27.9498C28.9845 27.6988 30.2484 26.4436 30.5012 24.8536H32.4391C34.1242 24.8536 35.4724 23.5984 35.4724 21.9247V15.7323V11.9666ZM7.58314 17.3222H5.98225C5.898 17.3222 5.81374 17.2385 5.81374 17.1549V10.9624C5.81374 10.795 5.98225 10.7113 6.15077 10.7113H11.122C11.2062 10.7113 11.2905 10.795 11.2905 10.8787V14.6444C11.3747 16.067 9.68958 17.3222 7.58314 17.3222ZM13.4812 27.0293C11.9645 27.0293 10.7849 25.8578 10.7849 24.3515C10.7849 22.8452 11.9645 21.6737 13.4812 21.6737C14.9978 21.6737 16.1774 22.8452 16.1774 24.3515C16.1774 25.8578 14.9135 27.0293 13.4812 27.0293ZM18.7894 15.1465C18.7894 15.3138 18.6209 15.3975 18.5366 15.3975H12.7229C12.5543 15.3975 12.4701 15.2302 12.4701 15.1465V10.9624C12.4701 10.795 12.6386 10.7113 12.7229 10.7113H18.5366C18.7051 10.7113 18.7894 10.8787 18.7894 10.9624V15.1465ZM19.7162 15.1465V10.9624C19.7162 10.795 19.8847 10.7113 19.969 10.7113H25.7828C25.9513 10.7113 26.0355 10.8787 26.0355 10.9624V15.1465C26.0355 15.3138 25.867 15.3975 25.7828 15.3975H19.969C19.8847 15.4812 19.7162 15.3138 19.7162 15.1465ZM26.8781 27.0293C25.3615 27.0293 24.1819 25.8578 24.1819 24.3515C24.1819 22.8452 25.3615 21.6737 26.8781 21.6737C28.3947 21.6737 29.5743 22.8452 29.5743 24.3515C29.4901 25.8578 28.3105 27.0293 26.8781 27.0293ZM31.9336 15.1465C31.9336 15.3138 31.8493 15.3975 31.6808 15.3975H27.2994C27.2151 15.3975 27.0466 15.3138 27.0466 15.1465V10.9624C27.0466 10.795 27.1309 10.7113 27.2994 10.7113H31.6808C31.765 10.7113 31.9336 10.795 31.9336 10.9624V15.1465Z" fill="url(#paint1_linear)"/>
<defs>
<linearGradient id="paint0_linear" x1="20.1025" y1="34.6833" x2="20.0891" y2="30.6322" gradientUnits="userSpaceOnUse">
<stop stop-color="#10AF7E"/>
<stop offset="1" stop-color="#00DB7E"/>
</linearGradient>
<linearGradient id="paint1_linear" x1="20.3587" y1="28.1408" x2="20.1895" y2="7.44606" gradientUnits="userSpaceOnUse">
<stop stop-color="#10AF7E"/>
<stop offset="1" stop-color="#00DB7E"/>
</linearGradient>
</defs>
</svg>
